<svg width="21" height="17" viewBox="0 0 21 17" fill="none" xmlns="http://www.w3.org/2000/svg">
<path d="M1 16C1 13.7909 3.68629 12 7 12C10.3137 12 13 13.7909 13 16" stroke="#484848" stroke-width="2" stroke-linecap="round" stroke-linejoin="round"/>
<path d="M16 13C16 13.5523 16.4477 14 17 14C17.5523 14 18 13.5523 18 13H16ZM18 7C18 6.44772 17.5523 6 17 6C16.4477 6 16 6.44772 16 7H18ZM18 13V7H16V13H18Z" fill="#484848"/>
<path d="M14 9C13.4477 9 13 9.44772 13 10C13 10.5523 13.4477 11 14 11L14 9ZM20 11C20.5523 11 21 10.5523 21 10C21 9.44772 20.5523 9 20 9V11ZM14 11L20 11V9L14 9L14 11Z" fill="#484848"/>
<path d="M7 9C9.20914 9 11 7.20914 11 5C11 2.79086 9.20914 1 7 1C4.79086 1 3 2.79086 3 5C3 7.20914 4.79086 9 7 9Z" stroke="#484848" stroke-width="2" stroke-linecap="round" stroke-linejoin="round"/>
</svg>
