<svg width="30" height="35" viewBox="0 0 30 35" fill="none" xmlns="http://www.w3.org/2000/svg">
<path fill-rule="evenodd" clip-rule="evenodd" d="M9.12236 0.75H20.8778C22.005 0.749992 22.9143 0.749985 23.6543 0.800475C24.4152 0.852393 25.0881 0.961848 25.7252 1.22575C27.2566 1.86009 28.4733 3.0768 29.1077 4.60823C29.3716 5.24535 29.481 5.9182 29.5329 6.67913C29.5834 7.41914 29.5834 8.3284 29.5834 9.4556V29.8735C29.5834 30.6069 29.5835 31.228 29.5467 31.7149C29.511 32.1865 29.4313 32.7548 29.1185 33.2402C28.4986 34.2022 27.3734 34.7128 26.2412 34.5458C25.6699 34.4616 25.1898 34.1474 24.8113 33.8636C24.4207 33.5707 23.9532 33.1616 23.4013 32.6787L15.8232 26.0479C15.5524 25.8109 15.393 25.6722 15.2673 25.5757C15.1895 25.516 15.1529 25.495 15.1431 25.4899C15.0508 25.4562 14.9494 25.4562 14.857 25.4899C14.8473 25.495 14.8106 25.516 14.7329 25.5757C14.6072 25.6722 14.4478 25.8109 14.177 26.0479L6.59878 32.6788C6.04689 33.1617 5.57945 33.5707 5.18884 33.8636C4.81041 34.1474 4.33028 34.4616 3.75896 34.5458C2.62677 34.7128 1.50156 34.2022 0.881667 33.2402C0.56886 32.7548 0.489163 32.1865 0.453513 31.7149C0.416715 31.228 0.41673 30.6068 0.416749 29.8734L0.416749 9.45561C0.416741 8.32841 0.416734 7.41914 0.467224 6.67913C0.519142 5.9182 0.628597 5.24535 0.892503 4.60823C1.52684 3.0768 2.74355 1.86009 4.27498 1.22575C4.9121 0.961848 5.58495 0.852393 6.34588 0.800475C7.08589 0.749985 7.99516 0.749992 9.12236 0.75ZM15.1404 25.4886L15.1431 25.4899ZM6.51606 3.29468C5.88242 3.33791 5.51342 3.41876 5.23169 3.53545C4.31283 3.91605 3.5828 4.64608 3.2022 5.56494C3.0855 5.84667 3.00466 6.21567 2.96143 6.84931C2.91743 7.49418 2.91675 8.31804 2.91675 9.5V29.8239C2.91675 30.6202 2.91761 31.1455 2.9464 31.5264C2.96526 31.776 2.99253 31.8822 2.99995 31.9102C3.08526 32.0241 3.22308 32.0867 3.36499 32.0759C3.39094 32.063 3.48884 32.0136 3.68907 31.8634C3.99471 31.6343 4.3906 31.289 4.98988 30.7646L12.5307 24.1664C12.5657 24.1358 12.6008 24.1049 12.6361 24.0738C13.0415 23.7172 13.4695 23.3406 13.9742 23.151C14.6356 22.9025 15.3646 22.9025 16.026 23.151C16.5306 23.3406 16.9587 23.7172 17.364 24.0738C17.3993 24.1049 17.4345 24.1358 17.4695 24.1664L25.0103 30.7646C25.6096 31.289 26.0055 31.6343 26.3111 31.8634C26.5113 32.0136 26.6092 32.063 26.6352 32.0759C26.7771 32.0867 26.9149 32.0241 27.0002 31.9102C27.0076 31.8822 27.0349 31.776 27.0538 31.5264C27.0826 31.1455 27.0834 30.6202 27.0834 29.8239V9.5C27.0834 8.31804 27.0827 7.49418 27.0387 6.84931C26.9955 6.21567 26.9147 5.84667 26.798 5.56494C26.4174 4.64608 25.6873 3.91605 24.7685 3.53545C24.4868 3.41876 24.1177 3.33791 23.4841 3.29468C22.8392 3.25068 22.0154 3.25 20.8334 3.25H9.16675C7.98479 3.25 7.16093 3.25068 6.51606 3.29468Z" fill="black"/>
</svg>