<svg width="10" height="10" viewBox="0 0 10 10" fill="none" xmlns="http://www.w3.org/2000/svg">
<path d="M3.49854 6.50151L6.50125 3.49878" stroke="#808080" stroke-linecap="round" stroke-linejoin="round"/>
<path d="M2.72611 4.97831C2.92138 4.78305 2.92138 4.46646 2.72611 4.2712C2.53085 4.07594 2.21427 4.07594 2.01901 4.2712L2.72611 4.97831ZM1.62188 5.37544L1.97544 5.72899L1.62188 5.37544ZM4.6246 8.37816L4.27104 8.02461L4.6246 8.37816ZM5.72883 7.98104C5.92409 7.78577 5.92409 7.46919 5.72883 7.27393C5.53356 7.07867 5.21698 7.07867 5.02172 7.27393L5.72883 7.98104ZM2.01901 4.2712L1.26833 5.02188L1.97544 5.72899L2.72611 4.97831L2.01901 4.2712ZM4.97815 8.73172L5.72883 7.98104L5.02172 7.27393L4.27104 8.02461L4.97815 8.73172ZM1.26833 8.73172C2.29277 9.75616 3.95371 9.75616 4.97815 8.73172L4.27104 8.02461C3.63713 8.65853 2.60935 8.65853 1.97544 8.02461L1.26833 8.73172ZM1.26833 5.02188C0.243891 6.04633 0.243891 7.70727 1.26833 8.73172L1.97544 8.02461C1.34152 7.39069 1.34152 6.36291 1.97544 5.72899L1.26833 5.02188Z" fill="#808080"/>
<path d="M4.2712 2.01901C4.07594 2.21428 4.07594 2.53086 4.2712 2.72612C4.46647 2.92138 4.78305 2.92138 4.97831 2.72612L4.2712 2.01901ZM5.37543 1.62189L5.72899 1.97544L5.72899 1.97544L5.37543 1.62189ZM8.37815 4.62461L8.7317 4.97816L8.37815 4.62461ZM7.27392 5.02174C7.07865 5.217 7.07865 5.53359 7.27392 5.72885C7.46918 5.92411 7.78576 5.92411 7.98102 5.72885L7.27392 5.02174ZM4.97831 2.72612L5.72899 1.97544L5.02188 1.26833L4.2712 2.01901L4.97831 2.72612ZM8.02459 4.27106L7.27392 5.02174L7.98102 5.72885L8.7317 4.97816L8.02459 4.27106ZM8.02459 1.97544C8.65851 2.60936 8.65851 3.63714 8.02459 4.27106L8.7317 4.97816C9.75614 3.95372 9.75614 2.29277 8.7317 1.26833L8.02459 1.97544ZM5.72899 1.97544C6.3629 1.34152 7.39068 1.34152 8.02459 1.97544L8.7317 1.26833C7.70726 0.243889 6.04632 0.243889 5.02188 1.26833L5.72899 1.97544Z" fill="#808080"/>
</svg>
