<svg width="32" height="32" viewBox="0 0 32 32" fill="none" xmlns="http://www.w3.org/2000/svg">
<path d="M15.9998 22.2574C19.314 22.2574 22.0006 19.4559 22.0006 16.0001C22.0006 12.5443 19.314 9.7428 15.9998 9.7428C12.6857 9.7428 9.99902 12.5443 9.99902 16.0001C9.99902 19.4559 12.6857 22.2574 15.9998 22.2574Z" stroke="black" stroke-width="2" stroke-linecap="round" stroke-linejoin="round"/>
<path d="M26.7519 9.64902L26.6532 9.47092C26.3811 8.97969 26.2422 8.42056 26.2513 7.85335L26.2962 5.07069C26.3054 4.50202 26.0179 3.97296 25.5453 3.68899L21.4397 1.22203C20.9683 0.938779 20.3868 0.943855 19.92 1.2353L17.6411 2.65819C17.1753 2.949 16.6426 3.10259 16.0997 3.10259H15.9021C15.3581 3.10259 14.8243 2.94833 14.3578 2.65632L12.0684 1.22313C11.6 0.929895 11.0157 0.925387 10.5432 1.21136L6.45063 3.68815C5.98033 3.97278 5.69455 4.50049 5.7037 5.06743L5.74865 7.85335C5.75781 8.42056 5.61889 8.97969 5.34677 9.47092L5.24942 9.64664C4.97715 10.1381 4.58179 10.5431 4.10567 10.8183L1.77303 12.1662C1.29492 12.4425 0.998762 12.968 1 13.538L1.01074 18.4685C1.01198 19.035 1.30685 19.5566 1.78163 19.832L4.10307 21.1786C4.58081 21.4557 4.97685 21.8637 5.24843 22.3584L5.35273 22.5485C5.62102 23.0372 5.75783 23.5924 5.74871 24.1555L5.70381 26.9292C5.6946 27.498 5.98215 28.0271 6.45476 28.311L10.5603 30.778C11.0317 31.0612 11.6132 31.0561 12.08 30.7647L14.3589 29.3418C14.8247 29.051 15.3574 28.8974 15.9003 28.8974H16.0979C16.6419 28.8974 17.1757 29.0517 17.6422 29.3437L19.9316 30.7769C20.4 31.0701 20.9843 31.0746 21.4568 30.7886L25.5494 28.3118C26.0197 28.0272 26.3054 27.4995 26.2963 26.9326L26.2513 24.1466C26.2422 23.5794 26.3811 23.0203 26.6532 22.5291L26.7506 22.3534C27.0228 21.8619 27.4182 21.4569 27.8943 21.1817L30.227 19.8338C30.7051 19.5575 31.0012 19.032 31 18.462L30.9893 13.5315C30.988 12.965 30.6932 12.4434 30.2184 12.168L27.8914 10.8182C27.4171 10.5431 27.0233 10.139 26.7519 9.64902Z" stroke="black" stroke-width="2" stroke-linecap="round" stroke-linejoin="round"/>
</svg>