<svg width="22" height="22" viewBox="0 0 22 22" fill="none" xmlns="http://www.w3.org/2000/svg">
<path d="M10.9985 14.5889C13.2077 14.5889 14.9985 12.798 14.9985 10.5889C14.9985 8.37973 13.2077 6.58887 10.9985 6.58887C8.7894 6.58887 6.99854 8.37973 6.99854 10.5889C6.99854 12.798 8.7894 14.5889 10.9985 14.5889Z" stroke="black" stroke-width="2" stroke-linecap="round" stroke-linejoin="round"/>
<path d="M18.1656 6.52891L18.0999 6.41505C17.9185 6.10104 17.8259 5.74361 17.832 5.38102L17.8619 3.6022C17.868 3.23867 17.6763 2.90047 17.3613 2.71894L14.6247 1.14194C14.3104 0.960864 13.9228 0.964109 13.6117 1.15042L12.0926 2.06C11.7821 2.2459 11.427 2.34409 11.0651 2.34409H10.9334C10.5708 2.34409 10.2149 2.24548 9.90401 2.05881L8.37794 1.14264C8.0657 0.955185 7.67624 0.952303 7.36125 1.13511L4.63327 2.71841C4.31978 2.90035 4.12928 3.2377 4.13538 3.60011L4.16535 5.38102C4.17145 5.74361 4.07885 6.10104 3.89746 6.41506L3.83257 6.52739C3.65108 6.84157 3.38754 7.10047 3.07017 7.27634L1.51528 8.13801C1.19659 8.31462 0.999175 8.6506 1 9.01496L1.00716 12.1668C1.00798 12.5289 1.20454 12.8623 1.52101 13.0384L3.06844 13.8992C3.38689 14.0764 3.65088 14.3372 3.83191 14.6534L3.90143 14.7749C4.08027 15.0873 4.17146 15.4423 4.16538 15.8022L4.13545 17.5753C4.12931 17.9389 4.32099 18.2771 4.63602 18.4587L7.37266 20.0356C7.68688 20.2167 8.07451 20.2135 8.38566 20.0272L9.90475 19.1176C10.2152 18.9317 10.5703 18.8335 10.9322 18.8335H11.0639C11.4265 18.8335 11.7824 18.9321 12.0933 19.1188L13.6194 20.0349C13.9316 20.2224 14.3211 20.2253 14.6361 20.0425L17.3641 18.4592C17.6775 18.2772 17.868 17.9399 17.8619 17.5775L17.832 15.7966C17.8259 15.434 17.9185 15.0765 18.0999 14.7625L18.1648 14.6502C18.3462 14.336 18.6098 14.0771 18.9272 13.9012L20.482 13.0396C20.8007 12.863 20.9981 12.527 20.9973 12.1626L20.9902 9.0108C20.9893 8.64865 20.7928 8.31525 20.4763 8.13919L18.9252 7.27628C18.6091 7.10043 18.3466 6.84214 18.1656 6.52891Z" stroke="black" stroke-width="2" stroke-linecap="round" stroke-linejoin="round"/>
</svg>
