<svg width="20" height="17" viewBox="0 0 20 17" fill="none" xmlns="http://www.w3.org/2000/svg">
<path d="M5 16C5 14.3431 7.23858 13 10 13C12.7614 13 15 14.3431 15 16" stroke="black" stroke-width="2" stroke-linecap="round" stroke-linejoin="round"/>
<path d="M16 10.2495C17.7659 10.7124 19 11.7697 19 12.9999" stroke="black" stroke-width="2" stroke-linecap="round" stroke-linejoin="round"/>
<path d="M4 10.2495C2.2341 10.7124 1 11.7697 1 12.9999" stroke="black" stroke-width="2" stroke-linecap="round" stroke-linejoin="round"/>
<path d="M10 10C11.6569 10 13 8.65685 13 7C13 5.34315 11.6569 4 10 4C8.34315 4 7 5.34315 7 7C7 8.65685 8.34315 10 10 10Z" stroke="black" stroke-width="2" stroke-linecap="round" stroke-linejoin="round"/>
<path d="M16 6.23611C16.6137 5.68679 17 4.8885 17 4C17 2.34315 15.6569 1 14 1C13.2316 1 12.5308 1.28885 12 1.76389" stroke="black" stroke-width="2" stroke-linecap="round" stroke-linejoin="round"/>
<path d="M4 6.23611C3.38625 5.68679 3 4.8885 3 4C3 2.34315 4.34315 1 6 1C6.76835 1 7.46924 1.28885 8 1.76389" stroke="black" stroke-width="2" stroke-linecap="round" stroke-linejoin="round"/>
</svg>